<svg xmlns="http://www.w3.org/2000/svg" version="1.1" xmlns:xlink="http://www.w3.org/1999/xlink" xmlns:svgjs="http://svgjs.dev/svgjs" viewBox="0 0 2400 800"><defs><linearGradient x1="50%" y1="0%" x2="50%" y2="100%" id="sssurf-grad"><stop stop-color="#f8ba0d" stop-opacity="1" offset="0%"></stop><stop stop-color="hsl(208, 74%, 93%)" stop-opacity="1" offset="100%"></stop></linearGradient></defs><g fill="url(#sssurf-grad)" transform="matrix(1,0,0,1,10.8282470703125,163.7655553817749)"><path d="M-10,10C33.75,10,114.58333333333334,12.708333333333332,200,10C285.41666666666663,7.291666666666667,316.66666666666663,-3.2083333333333335,400,-3C483.33333333333337,-2.7916666666666665,516.6666666666666,9.75,600,11C683.3333333333334,12.25,716.6666666666666,1.5416666666666665,800,3C883.3333333333334,4.458333333333334,916.6666666666666,17.791666666666668,1000,18C1083.3333333333333,18.208333333333332,1116.6666666666667,3.7916666666666665,1200,4C1283.3333333333333,4.208333333333333,1316.6666666666667,17.541666666666668,1400,19C1483.3333333333333,20.458333333333332,1516.6666666666667,9.958333333333334,1600,11C1683.3333333333333,12.041666666666666,1716.6666666666667,23.791666666666668,1800,24C1883.3333333333333,24.208333333333332,1916.6666666666667,10.541666666666666,2000,12C2083.3333333333335,13.458333333333334,2118.75,31.416666666666668,2200,31C2281.25,30.583333333333332,2296.25,-66.875,2390,10C2483.75,86.875,3252.0833333333335,214.58333333333331,2650,400C2047.9166666666665,585.4166666666667,156.25,795.8333333333334,-500,900" transform="matrix(1,0,0,1,0,28)" opacity="0.05"></path><path d="M-10,10C33.75,10,114.58333333333334,12.708333333333332,200,10C285.41666666666663,7.291666666666667,316.66666666666663,-3.2083333333333335,400,-3C483.33333333333337,-2.7916666666666665,516.6666666666666,9.75,600,11C683.3333333333334,12.25,716.6666666666666,1.5416666666666665,800,3C883.3333333333334,4.458333333333334,916.6666666666666,17.791666666666668,1000,18C1083.3333333333333,18.208333333333332,1116.6666666666667,3.7916666666666665,1200,4C1283.3333333333333,4.208333333333333,1316.6666666666667,17.541666666666668,1400,19C1483.3333333333333,20.458333333333332,1516.6666666666667,9.958333333333334,1600,11C1683.3333333333333,12.041666666666666,1716.6666666666667,23.791666666666668,1800,24C1883.3333333333333,24.208333333333332,1916.6666666666667,10.541666666666666,2000,12C2083.3333333333335,13.458333333333334,2118.75,31.416666666666668,2200,31C2281.25,30.583333333333332,2296.25,-66.875,2390,10C2483.75,86.875,3252.0833333333335,214.58333333333331,2650,400C2047.9166666666665,585.4166666666667,156.25,795.8333333333334,-500,900" transform="matrix(1,0,0,1,0,56)" opacity="0.13"></path><path d="M-10,10C33.75,10,114.58333333333334,12.708333333333332,200,10C285.41666666666663,7.291666666666667,316.66666666666663,-3.2083333333333335,400,-3C483.33333333333337,-2.7916666666666665,516.6666666666666,9.75,600,11C683.3333333333334,12.25,716.6666666666666,1.5416666666666665,800,3C883.3333333333334,4.458333333333334,916.6666666666666,17.791666666666668,1000,18C1083.3333333333333,18.208333333333332,1116.6666666666667,3.7916666666666665,1200,4C1283.3333333333333,4.208333333333333,1316.6666666666667,17.541666666666668,1400,19C1483.3333333333333,20.458333333333332,1516.6666666666667,9.958333333333334,1600,11C1683.3333333333333,12.041666666666666,1716.6666666666667,23.791666666666668,1800,24C1883.3333333333333,24.208333333333332,1916.6666666666667,10.541666666666666,2000,12C2083.3333333333335,13.458333333333334,2118.75,31.416666666666668,2200,31C2281.25,30.583333333333332,2296.25,-66.875,2390,10C2483.75,86.875,3252.0833333333335,214.58333333333331,2650,400C2047.9166666666665,585.4166666666667,156.25,795.8333333333334,-500,900" transform="matrix(1,0,0,1,0,84)" opacity="0.21"></path><path d="M-10,10C33.75,10,114.58333333333334,12.708333333333332,200,10C285.41666666666663,7.291666666666667,316.66666666666663,-3.2083333333333335,400,-3C483.33333333333337,-2.7916666666666665,516.6666666666666,9.75,600,11C683.3333333333334,12.25,716.6666666666666,1.5416666666666665,800,3C883.3333333333334,4.458333333333334,916.6666666666666,17.791666666666668,1000,18C1083.3333333333333,18.208333333333332,1116.6666666666667,3.7916666666666665,1200,4C1283.3333333333333,4.208333333333333,1316.6666666666667,17.541666666666668,1400,19C1483.3333333333333,20.458333333333332,1516.6666666666667,9.958333333333334,1600,11C1683.3333333333333,12.041666666666666,1716.6666666666667,23.791666666666668,1800,24C1883.3333333333333,24.208333333333332,1916.6666666666667,10.541666666666666,2000,12C2083.3333333333335,13.458333333333334,2118.75,31.416666666666668,2200,31C2281.25,30.583333333333332,2296.25,-66.875,2390,10C2483.75,86.875,3252.0833333333335,214.58333333333331,2650,400C2047.9166666666665,585.4166666666667,156.25,795.8333333333334,-500,900" transform="matrix(1,0,0,1,0,112)" opacity="0.29"></path><path d="M-10,10C33.75,10,114.58333333333334,12.708333333333332,200,10C285.41666666666663,7.291666666666667,316.66666666666663,-3.2083333333333335,400,-3C483.33333333333337,-2.7916666666666665,516.6666666666666,9.75,600,11C683.3333333333334,12.25,716.6666666666666,1.5416666666666665,800,3C883.3333333333334,4.458333333333334,916.6666666666666,17.791666666666668,1000,18C1083.3333333333333,18.208333333333332,1116.6666666666667,3.7916666666666665,1200,4C1283.3333333333333,4.208333333333333,1316.6666666666667,17.541666666666668,1400,19C1483.3333333333333,20.458333333333332,1516.6666666666667,9.958333333333334,1600,11C1683.3333333333333,12.041666666666666,1716.6666666666667,23.791666666666668,1800,24C1883.3333333333333,24.208333333333332,1916.6666666666667,10.541666666666666,2000,12C2083.3333333333335,13.458333333333334,2118.75,31.416666666666668,2200,31C2281.25,30.583333333333332,2296.25,-66.875,2390,10C2483.75,86.875,3252.0833333333335,214.58333333333331,2650,400C2047.9166666666665,585.4166666666667,156.25,795.8333333333334,-500,900" transform="matrix(1,0,0,1,0,140)" opacity="0.37"></path><path d="M-10,10C33.75,10,114.58333333333334,12.708333333333332,200,10C285.41666666666663,7.291666666666667,316.66666666666663,-3.2083333333333335,400,-3C483.33333333333337,-2.7916666666666665,516.6666666666666,9.75,600,11C683.3333333333334,12.25,716.6666666666666,1.5416666666666665,800,3C883.3333333333334,4.458333333333334,916.6666666666666,17.791666666666668,1000,18C1083.3333333333333,18.208333333333332,1116.6666666666667,3.7916666666666665,1200,4C1283.3333333333333,4.208333333333333,1316.6666666666667,17.541666666666668,1400,19C1483.3333333333333,20.458333333333332,1516.6666666666667,9.958333333333334,1600,11C1683.3333333333333,12.041666666666666,1716.6666666666667,23.791666666666668,1800,24C1883.3333333333333,24.208333333333332,1916.6666666666667,10.541666666666666,2000,12C2083.3333333333335,13.458333333333334,2118.75,31.416666666666668,2200,31C2281.25,30.583333333333332,2296.25,-66.875,2390,10C2483.75,86.875,3252.0833333333335,214.58333333333331,2650,400C2047.9166666666665,585.4166666666667,156.25,795.8333333333334,-500,900" transform="matrix(1,0,0,1,0,168)" opacity="0.45"></path><path d="M-10,10C33.75,10,114.58333333333334,12.708333333333332,200,10C285.41666666666663,7.291666666666667,316.66666666666663,-3.2083333333333335,400,-3C483.33333333333337,-2.7916666666666665,516.6666666666666,9.75,600,11C683.3333333333334,12.25,716.6666666666666,1.5416666666666665,800,3C883.3333333333334,4.458333333333334,916.6666666666666,17.791666666666668,1000,18C1083.3333333333333,18.208333333333332,1116.6666666666667,3.7916666666666665,1200,4C1283.3333333333333,4.208333333333333,1316.6666666666667,17.541666666666668,1400,19C1483.3333333333333,20.458333333333332,1516.6666666666667,9.958333333333334,1600,11C1683.3333333333333,12.041666666666666,1716.6666666666667,23.791666666666668,1800,24C1883.3333333333333,24.208333333333332,1916.6666666666667,10.541666666666666,2000,12C2083.3333333333335,13.458333333333334,2118.75,31.416666666666668,2200,31C2281.25,30.583333333333332,2296.25,-66.875,2390,10C2483.75,86.875,3252.0833333333335,214.58333333333331,2650,400C2047.9166666666665,585.4166666666667,156.25,795.8333333333334,-500,900" transform="matrix(1,0,0,1,0,196)" opacity="0.53"></path><path d="M-10,10C33.75,10,114.58333333333334,12.708333333333332,200,10C285.41666666666663,7.291666666666667,316.66666666666663,-3.2083333333333335,400,-3C483.33333333333337,-2.7916666666666665,516.6666666666666,9.75,600,11C683.3333333333334,12.25,716.6666666666666,1.5416666666666665,800,3C883.3333333333334,4.458333333333334,916.6666666666666,17.791666666666668,1000,18C1083.3333333333333,18.208333333333332,1116.6666666666667,3.7916666666666665,1200,4C1283.3333333333333,4.208333333333333,1316.6666666666667,17.541666666666668,1400,19C1483.3333333333333,20.458333333333332,1516.6666666666667,9.958333333333334,1600,11C1683.3333333333333,12.041666666666666,1716.6666666666667,23.791666666666668,1800,24C1883.3333333333333,24.208333333333332,1916.6666666666667,10.541666666666666,2000,12C2083.3333333333335,13.458333333333334,2118.75,31.416666666666668,2200,31C2281.25,30.583333333333332,2296.25,-66.875,2390,10C2483.75,86.875,3252.0833333333335,214.58333333333331,2650,400C2047.9166666666665,585.4166666666667,156.25,795.8333333333334,-500,900" transform="matrix(1,0,0,1,0,224)" opacity="0.60"></path><path d="M-10,10C33.75,10,114.58333333333334,12.708333333333332,200,10C285.41666666666663,7.291666666666667,316.66666666666663,-3.2083333333333335,400,-3C483.33333333333337,-2.7916666666666665,516.6666666666666,9.75,600,11C683.3333333333334,12.25,716.6666666666666,1.5416666666666665,800,3C883.3333333333334,4.458333333333334,916.6666666666666,17.791666666666668,1000,18C1083.3333333333333,18.208333333333332,1116.6666666666667,3.7916666666666665,1200,4C1283.3333333333333,4.208333333333333,1316.6666666666667,17.541666666666668,1400,19C1483.3333333333333,20.458333333333332,1516.6666666666667,9.958333333333334,1600,11C1683.3333333333333,12.041666666666666,1716.6666666666667,23.791666666666668,1800,24C1883.3333333333333,24.208333333333332,1916.6666666666667,10.541666666666666,2000,12C2083.3333333333335,13.458333333333334,2118.75,31.416666666666668,2200,31C2281.25,30.583333333333332,2296.25,-66.875,2390,10C2483.75,86.875,3252.0833333333335,214.58333333333331,2650,400C2047.9166666666665,585.4166666666667,156.25,795.8333333333334,-500,900" transform="matrix(1,0,0,1,0,252)" opacity="0.68"></path><path d="M-10,10C33.75,10,114.58333333333334,12.708333333333332,200,10C285.41666666666663,7.291666666666667,316.66666666666663,-3.2083333333333335,400,-3C483.33333333333337,-2.7916666666666665,516.6666666666666,9.75,600,11C683.3333333333334,12.25,716.6666666666666,1.5416666666666665,800,3C883.3333333333334,4.458333333333334,916.6666666666666,17.791666666666668,1000,18C1083.3333333333333,18.208333333333332,1116.6666666666667,3.7916666666666665,1200,4C1283.3333333333333,4.208333333333333,1316.6666666666667,17.541666666666668,1400,19C1483.3333333333333,20.458333333333332,1516.6666666666667,9.958333333333334,1600,11C1683.3333333333333,12.041666666666666,1716.6666666666667,23.791666666666668,1800,24C1883.3333333333333,24.208333333333332,1916.6666666666667,10.541666666666666,2000,12C2083.3333333333335,13.458333333333334,2118.75,31.416666666666668,2200,31C2281.25,30.583333333333332,2296.25,-66.875,2390,10C2483.75,86.875,3252.0833333333335,214.58333333333331,2650,400C2047.9166666666665,585.4166666666667,156.25,795.8333333333334,-500,900" transform="matrix(1,0,0,1,0,280)" opacity="0.76"></path><path d="M-10,10C33.75,10,114.58333333333334,12.708333333333332,200,10C285.41666666666663,7.291666666666667,316.66666666666663,-3.2083333333333335,400,-3C483.33333333333337,-2.7916666666666665,516.6666666666666,9.75,600,11C683.3333333333334,12.25,716.6666666666666,1.5416666666666665,800,3C883.3333333333334,4.458333333333334,916.6666666666666,17.791666666666668,1000,18C1083.3333333333333,18.208333333333332,1116.6666666666667,3.7916666666666665,1200,4C1283.3333333333333,4.208333333333333,1316.6666666666667,17.541666666666668,1400,19C1483.3333333333333,20.458333333333332,1516.6666666666667,9.958333333333334,1600,11C1683.3333333333333,12.041666666666666,1716.6666666666667,23.791666666666668,1800,24C1883.3333333333333,24.208333333333332,1916.6666666666667,10.541666666666666,2000,12C2083.3333333333335,13.458333333333334,2118.75,31.416666666666668,2200,31C2281.25,30.583333333333332,2296.25,-66.875,2390,10C2483.75,86.875,3252.0833333333335,214.58333333333331,2650,400C2047.9166666666665,585.4166666666667,156.25,795.8333333333334,-500,900" transform="matrix(1,0,0,1,0,308)" opacity="0.84"></path><path d="M-10,10C33.75,10,114.58333333333334,12.708333333333332,200,10C285.41666666666663,7.291666666666667,316.66666666666663,-3.2083333333333335,400,-3C483.33333333333337,-2.7916666666666665,516.6666666666666,9.75,600,11C683.3333333333334,12.25,716.6666666666666,1.5416666666666665,800,3C883.3333333333334,4.458333333333334,916.6666666666666,17.791666666666668,1000,18C1083.3333333333333,18.208333333333332,1116.6666666666667,3.7916666666666665,1200,4C1283.3333333333333,4.208333333333333,1316.6666666666667,17.541666666666668,1400,19C1483.3333333333333,20.458333333333332,1516.6666666666667,9.958333333333334,1600,11C1683.3333333333333,12.041666666666666,1716.6666666666667,23.791666666666668,1800,24C1883.3333333333333,24.208333333333332,1916.6666666666667,10.541666666666666,2000,12C2083.3333333333335,13.458333333333334,2118.75,31.416666666666668,2200,31C2281.25,30.583333333333332,2296.25,-66.875,2390,10C2483.75,86.875,3252.0833333333335,214.58333333333331,2650,400C2047.9166666666665,585.4166666666667,156.25,795.8333333333334,-500,900" transform="matrix(1,0,0,1,0,336)" opacity="0.92"></path><path d="M-10,10C33.75,10,114.58333333333334,12.708333333333332,200,10C285.41666666666663,7.291666666666667,316.66666666666663,-3.2083333333333335,400,-3C483.33333333333337,-2.7916666666666665,516.6666666666666,9.75,600,11C683.3333333333334,12.25,716.6666666666666,1.5416666666666665,800,3C883.3333333333334,4.458333333333334,916.6666666666666,17.791666666666668,1000,18C1083.3333333333333,18.208333333333332,1116.6666666666667,3.7916666666666665,1200,4C1283.3333333333333,4.208333333333333,1316.6666666666667,17.541666666666668,1400,19C1483.3333333333333,20.458333333333332,1516.6666666666667,9.958333333333334,1600,11C1683.3333333333333,12.041666666666666,1716.6666666666667,23.791666666666668,1800,24C1883.3333333333333,24.208333333333332,1916.6666666666667,10.541666666666666,2000,12C2083.3333333333335,13.458333333333334,2118.75,31.416666666666668,2200,31C2281.25,30.583333333333332,2296.25,-66.875,2390,10C2483.75,86.875,3252.0833333333335,214.58333333333331,2650,400C2047.9166666666665,585.4166666666667,156.25,795.8333333333334,-500,900" transform="matrix(1,0,0,1,0,364)" opacity="1.00"></path></g></svg>